# Blender v2.79 (sub 0) OBJ File: 'pather_NO_6.blend'
# www.blender.org
mtllib pather_NO_6_TEX_1.mtl
o Cube.006_Cube.005
v -0.284259 0.007319 0.277764
v -0.284259 0.015564 0.277764
v -0.284259 0.007319 -0.284398
v -0.284259 0.015564 -0.284398
v 0.277903 0.007319 0.277764
v 0.277903 0.015564 0.277764
v 0.277903 0.007319 -0.284398
v 0.277903 0.015564 -0.284398
vt 0.986146 0.500000
vt 0.972293 0.500000
vt 0.972293 0.000000
vt 0.986146 0.000000
vt 1.000000 0.000000
vt 1.000000 0.500000
vt 0.986146 0.500000
vt 0.958439 0.500000
vt 0.944586 0.500000
vt 0.944585 0.000000
vt 0.958439 0.000000
vt 0.972293 0.000000
vt 0.958439 0.500000
vt 0.944585 1.000000
vt 0.000000 1.000000
vt 0.000000 0.500000
vt 0.944585 0.500000
vt 0.944585 0.000000
vt 0.944585 0.500000
vt 0.000000 0.500000
vt 0.000000 0.000000
vn -1.0000 0.0000 0.0000
vn 0.0000 0.0000 -1.0000
vn 1.0000 0.0000 0.0000
vn 0.0000 0.0000 1.0000
vn 0.0000 -1.0000 0.0000
vn 0.0000 1.0000 0.0000
usemtl Material.005
s off
f 1/1/1 2/2/1 4/3/1 3/4/1
f 3/4/2 4/5/2 8/6/2 7/7/2
f 7/8/3 8/9/3 6/10/3 5/11/3
f 5/11/4 6/12/4 2/2/4 1/13/4
f 3/14/5 7/15/5 5/16/5 1/17/5
f 8/18/6 4/19/6 2/20/6 6/21/6
o Cube.005_Cube.006
v 0.012072 0.484300 -0.040348
v 0.007042 0.749987 -0.076450
v -0.071225 0.465091 -0.306870
v -0.103804 0.642608 -0.290117
v 0.212002 0.529660 -0.125446
v 0.186995 0.757700 -0.115263
v 0.108601 0.414568 -0.300301
v 0.083594 0.642608 -0.290117
vt 0.553113 0.377996
vt 0.613646 0.736632
vt 0.971910 0.591687
vt 1.000000 0.352068
vt 0.497201 0.352068
vt 0.442576 0.591687
vt 0.756792 0.591687
vt 0.798722 0.283870
vt 0.360552 0.536827
vt 0.343477 0.844645
vt 0.050292 1.000000
vt 0.067367 0.692182
vt 0.343664 0.439225
vt 0.301735 0.747043
vt 0.000000 0.736632
vt 0.008434 0.377996
vt 0.497201 0.359762
vt 0.798722 0.350895
vt 0.972097 0.114869
vt 0.636867 0.000000
vt 0.442576 0.337149
vt 0.128359 0.337149
vt 0.314217 0.048732
vt 0.615951 0.101123
vn -0.9197 -0.0611 0.3879
vn 0.0275 0.0701 -0.9972
vn 0.8201 0.1150 -0.5606
vn 0.3008 0.0682 0.9513
vn 0.0436 -0.9608 0.2739
vn -0.0679 0.8815 -0.4673
usemtl Material.004
s off
f 9/22/7 10/23/7 12/24/7 11/25/7
f 11/26/8 12/27/8 16/28/8 15/29/8
f 15/30/9 16/31/9 14/32/9 13/33/9
f 13/34/10 14/35/10 10/36/10 9/37/10
f 11/38/11 15/39/11 13/40/11 9/41/11
f 16/42/12 12/43/12 10/44/12 14/45/12
o Cube.004_Cube
v -0.231109 0.020506 0.218251
v -0.249177 0.343677 0.214885
v -0.252424 0.041074 -0.066264
v -0.201760 0.353451 -0.074241
v 0.070149 0.023500 0.167863
v 0.024009 0.311761 0.189184
v -0.106473 0.088845 -0.083204
v -0.108020 0.362078 -0.121806
v -0.226704 0.025871 0.213418
v -0.244512 0.338806 0.209781
v -0.246990 0.045865 -0.061899
v -0.197154 0.347772 -0.069989
v 0.063613 0.028243 0.165346
v 0.017852 0.307376 0.185388
v -0.109446 0.093008 -0.076467
v -0.111025 0.357161 -0.115614
vt 0.448180 0.496804
vt 0.453488 0.972891
vt 0.909413 0.987290
vt 0.896835 0.527104
vt 0.491331 0.527104
vt 0.571224 0.987290
vt 0.719043 1.000000
vt 0.721484 0.597479
vt 0.429530 0.597479
vt 0.490402 1.000000
vt 0.000000 0.925874
vt 0.033621 0.501214
vt 0.505983 0.501214
vt 0.433224 0.925874
vt 0.002434 0.972891
vt 0.030927 0.496804
vt 0.491331 0.419142
vt 0.721484 0.444097
vt 1.000000 0.074231
vt 0.524944 0.000000
vt 0.719043 0.500964
vt 0.571224 0.430892
vt 0.496451 0.004959
vt 0.927241 0.042822
vt 0.448180 0.496804
vt 0.896835 0.527104
vt 0.909413 0.987290
vt 0.453488 0.972891
vt 0.491331 0.527104
vt 0.721484 0.597479
vt 0.719043 1.000000
vt 0.571224 0.987290
vt 0.429530 0.597479
vt 0.033621 0.501214
vt 0.000000 0.925874
vt 0.490402 1.000000
vt 0.505983 0.501214
vt 0.030927 0.496804
vt 0.002434 0.972891
vt 0.433224 0.925874
vt 0.491331 0.419142
vt 0.524944 0.000000
vt 1.000000 0.074231
vt 0.721484 0.444097
vt 0.719043 0.500964
vt 0.927241 0.042822
vt 0.496451 0.004959
vt 0.571224 0.430892
vn -0.9978 0.0504 -0.0427
vn -0.2471 -0.0562 -0.9674
vn 0.8801 0.0603 -0.4709
vn 0.1305 -0.0154 0.9913
vn 0.0829 -0.9787 -0.1876
vn 0.0806 0.9928 0.0881
vn 0.9976 -0.0511 0.0460
vn 0.2453 0.0598 0.9676
vn -0.8776 -0.0598 0.4756
vn -0.1293 0.0136 -0.9915
vn -0.0850 0.9777 0.1920
vn -0.0807 -0.9927 -0.0891
usemtl Material.001
s off
f 17/46/13 18/47/13 20/48/13 19/49/13
f 19/50/14 20/51/14 24/52/14 23/53/14
f 23/54/15 24/55/15 22/56/15 21/57/15
f 21/58/16 22/59/16 18/60/16 17/61/16
f 19/62/17 23/63/17 21/64/17 17/65/17
f 24/66/18 20/67/18 18/68/18 22/69/18
f 25/70/19 27/71/19 28/72/19 26/73/19
f 27/74/20 31/75/20 32/76/20 28/77/20
f 31/78/21 29/79/21 30/80/21 32/81/21
f 29/82/22 25/83/22 26/84/22 30/85/22
f 27/86/23 25/87/23 29/88/23 31/89/23
f 32/90/24 30/91/24 26/92/24 28/93/24
o Cube_Cube.004
v 0.082612 0.565157 0.114914
v -0.063761 0.544594 0.210818
v 0.020415 0.379849 0.094081
v -0.072998 0.378506 0.197966
v -0.030321 0.535702 -0.016625
v -0.128189 0.525344 0.100660
v -0.039558 0.369615 -0.029476
v -0.137218 0.368629 0.089932
vt 0.605555 0.542127
vt 0.640297 0.980988
vt 0.985012 1.000000
vt 1.000000 0.636807
vt 0.385060 0.636807
vt 0.398169 1.000000
vt 0.636950 0.893064
vt 0.637112 0.491875
vt 0.433468 0.491875
vt 0.413634 0.893064
vt 0.088753 0.871811
vt 0.088753 0.472864
vt 0.340398 0.472864
vt 0.340398 0.871811
vt 0.101455 0.980988
vt 0.000000 0.542127
vt 0.385060 0.496102
vt 0.637112 0.581458
vt 0.657597 0.147903
vt 0.317199 0.000000
vt 0.319751 0.556512
vt 0.080970 0.477251
vt 0.101455 0.043696
vt 0.340398 0.147903
vn 0.6378 -0.2009 0.7435
vn 0.0696 -0.9964 0.0492
vn -0.7700 0.0897 -0.6318
vn -0.1809 0.9813 -0.0650
vn 0.8305 -0.1166 -0.5447
vn -0.8620 0.0118 0.5067
usemtl Material
s off
f 33/94/25 34/95/25 36/96/25 35/97/25
f 35/98/26 36/99/26 40/100/26 39/101/26
f 39/102/27 40/103/27 38/104/27 37/105/27
f 37/106/28 38/107/28 34/108/28 33/109/28
f 35/110/29 39/111/29 37/112/29 33/113/29
f 40/114/30 36/115/30 34/116/30 38/117/30
o Cube.003
v 0.205934 0.244155 -0.169489
v 0.170302 0.288042 -0.032483
v 0.052969 0.271408 -0.189366
v 0.024322 0.284836 -0.109030
v 0.152351 0.461298 -0.234317
v 0.114405 0.488091 -0.125676
v -0.015255 0.446027 -0.286828
v -0.035046 0.478462 -0.151143
vt 0.612239 0.557460
vt 0.596065 0.862446
vt 0.968299 0.798021
vt 0.973193 0.623359
vt 0.552134 0.623359
vt 0.547241 0.798021
vt 0.890591 0.885081
vt 0.948952 0.599134
vt 0.527894 0.599134
vt 0.469532 0.885081
vt 0.144853 0.856834
vt 0.145072 0.615147
vt 0.578942 0.615147
vt 0.544082 0.856834
vt 0.142408 0.862446
vt 0.150719 0.557460
vt 0.461095 0.667936
vt 0.796267 1.000000
vt 1.000000 0.679648
vt 0.571778 0.365883
vt 0.361496 0.598813
vt 0.000000 0.311492
vt 0.142408 0.000000
vt 0.544082 0.327116
vn -0.1460 -0.9664 0.2117
vn -0.9210 -0.3678 -0.1284
vn -0.0174 0.9708 -0.2394
vn 0.9302 0.3153 0.1879
vn 0.1970 -0.3223 -0.9259
vn -0.3269 0.2202 0.9191
usemtl Material.008
s off
f 41/118/31 42/119/31 44/120/31 43/121/31
f 43/122/32 44/123/32 48/124/32 47/125/32
f 47/126/33 48/127/33 46/128/33 45/129/33
f 45/130/34 46/131/34 42/132/34 41/133/34
f 43/134/35 47/135/35 45/136/35 41/137/35
f 48/138/36 44/139/36 42/140/36 46/141/36
o Cube.002
v -0.224891 0.369485 -0.012477
v -0.242568 0.489183 0.009132
v -0.242568 0.365186 -0.114864
v -0.237115 0.477813 -0.107074
v -0.081845 0.415384 0.002922
v -0.091196 0.539865 0.020799
v -0.093754 0.412376 -0.099006
v -0.088332 0.502097 -0.123731
vt 0.360954 0.678163
vt 0.197835 0.965100
vt 0.605976 0.934375
vt 0.633340 0.630019
vt 0.435505 0.630019
vt 0.454659 0.934375
vt 0.977215 1.000000
vt 0.913392 0.822561
vt 0.603482 0.487480
vt 0.664481 0.664918
vt 0.156860 0.766979
vt 0.219646 0.430589
vt 0.564495 0.430589
vt 0.531651 0.766979
vt 0.000000 0.630019
vt 0.107721 0.343082
vt 0.435505 0.701690
vt 0.913392 0.678717
vt 1.000000 0.383390
vt 0.543227 0.492114
vt 0.541710 0.390569
vt 0.019153 0.345554
vt 0.000000 0.031527
vt 0.531651 0.000000
vn -0.9964 -0.0600 0.0600
vn 0.0176 -0.0843 -0.9963
vn 0.9991 0.0171 -0.0395
vn -0.0370 -0.1635 0.9858
vn 0.3048 -0.9524 -0.0101
vn -0.2410 0.9523 -0.1872
usemtl Material.003
s off
f 49/142/37 50/143/37 52/144/37 51/145/37
f 51/146/38 52/147/38 56/148/38 55/149/38
f 55/150/39 56/151/39 54/152/39 53/153/39
f 53/154/40 54/155/40 50/156/40 49/157/40
f 51/158/41 55/159/41 53/160/41 49/161/41
f 56/162/42 52/163/42 50/164/42 54/165/42
o Cube.001
v 0.025876 0.031356 0.002307
v -0.064041 0.250386 -0.045665
v 0.036139 0.094140 -0.182097
v 0.007841 0.276381 -0.322860
v 0.227333 0.020005 0.006769
v 0.137416 0.239035 -0.041204
v 0.279477 0.084480 -0.137660
v 0.251179 0.266721 -0.278423
vt 0.373076 0.255537
vt 0.451452 0.589954
vt 0.904324 0.629643
vt 0.674350 0.351395
vt 0.602442 0.351395
vt 0.556210 0.629643
vt 0.953768 0.614894
vt 1.000000 0.336646
vt 0.601751 0.336646
vt 0.831725 0.614894
vt 0.444164 0.572623
vt 0.365788 0.238206
vt 0.476037 0.648252
vt 0.329134 0.982669
vt 0.000000 1.000000
vt 0.146903 0.665583
vt 0.602442 0.288362
vt 1.000000 0.220516
vt 0.914808 0.000000
vt 0.585674 0.006812
vt 0.514997 0.435434
vt 0.117438 0.503280
vt 0.000000 0.080057
vt 0.329134 0.073245
vn -0.8982 -0.3736 -0.2317
vn 0.1215 -0.5949 -0.7946
vn 0.7802 0.4393 0.4453
vn -0.0098 0.2101 0.9776
vn -0.0043 -0.9323 -0.3616
vn 0.0341 0.9927 0.1159
usemtl Material.002
s off
f 57/166/43 58/167/43 60/168/43 59/169/43
f 59/170/44 60/171/44 64/172/44 63/173/44
f 63/174/45 64/175/45 62/176/45 61/177/45
f 61/178/46 62/179/46 58/180/46 57/181/46
f 59/182/47 63/183/47 61/184/47 57/185/47
f 64/186/48 60/187/48 58/188/48 62/189/48
